<?xml version="1.0" encoding="UTF-8" standalone="no"?>
<!-- Created with Inkscape (http://www.inkscape.org/) -->

<svg
   xmlns:dc="http://purl.org/dc/elements/1.1/"
   xmlns:cc="http://creativecommons.org/ns#"
   xmlns:rdf="http://www.w3.org/1999/02/22-rdf-syntax-ns#"
   xmlns:svg="http://www.w3.org/2000/svg"
   xmlns="http://www.w3.org/2000/svg"
   xmlns:sodipodi="http://sodipodi.sourceforge.net/DTD/sodipodi-0.dtd"
   xmlns:inkscape="http://www.inkscape.org/namespaces/inkscape"
   width="31.423931mm"
   height="36.513172mm"
   viewBox="0 0 111.34464 129.37738"
   id="svg5605"
   version="1.1"
   inkscape:version="0.91 r13725"
   sodipodi:docname="scikits-black-3.svg">
  <defs
     id="defs5607" />
  <sodipodi:namedview
     id="base"
     pagecolor="#ffffff"
     bordercolor="#666666"
     borderopacity="1.0"
     inkscape:pageopacity="0.0"
     inkscape:pageshadow="2"
     inkscape:zoom="6.1757317"
     inkscape:cx="55.672319"
     inkscape:cy="64.688691"
     inkscape:document-units="px"
     inkscape:current-layer="layer1"
     showgrid="false"
     fit-margin-top="0"
     fit-margin-left="0"
     fit-margin-right="0"
     fit-margin-bottom="0"
     inkscape:window-width="1680"
     inkscape:window-height="1001"
     inkscape:window-x="0"
     inkscape:window-y="23"
     inkscape:window-maximized="1" />
  <metadata
     id="metadata5610">
    <rdf:RDF>
      <cc:Work
         rdf:about="">
        <dc:format>image/svg+xml</dc:format>
        <dc:type
           rdf:resource="http://purl.org/dc/dcmitype/StillImage" />
        <dc:title></dc:title>
      </cc:Work>
    </rdf:RDF>
  </metadata>
  <g
     inkscape:label="Layer 1"
     inkscape:groupmode="layer"
     id="layer1"
     transform="translate(-15.756254,-193.3878)">
    <g
       id="g4449"
       transform="matrix(0.75000004,0,0,0.75000009,-386.10744,185.19156)">
      <path
         sodipodi:nodetypes="ccccccc"
         inkscape:connector-curvature="0"
         id="path4827-4-2-9-4-1"
         d="m 538.73267,138.62031 0,-82.88084 71.31533,-41.44041 71.31532,41.44041 0,82.88084 -71.31532,41.44042 z"
         style="fill:#20435c;fill-opacity:1;stroke:#ffffff;stroke-width:5.8288703;stroke-linecap:butt;stroke-linejoin:miter;stroke-miterlimit:4;stroke-dasharray:none;stroke-opacity:1" />
      <g
         transform="matrix(0.58100978,0,0,0.5847703,654.29068,-63.47997)"
         id="g4256-9-2-4">
        <path
           inkscape:connector-curvature="0"
           style="color:#000000;display:inline;overflow:visible;visibility:visible;fill:none;stroke:#ffffff;stroke-width:2.5;stroke-linecap:butt;stroke-linejoin:miter;stroke-miterlimit:4;stroke-dasharray:none;stroke-dashoffset:0;stroke-opacity:1;marker:none"
           d="m -95.045991,183.10088 c -0.971668,0.41881 -1.884977,0.91419 -2.823492,1.3707 l -0.06673,0.0235 2.159596,13.5922 c -3.507396,2.21226 -6.575693,4.95036 -9.097503,8.09048 l -13.15681,-3.85535 c -2.0609,3.20237 -3.73735,6.68099 -5.02554,10.26265 l 11.03174,8.06101 c -1.02092,4.16048 -1.32422,8.60718 -0.83197,12.99316 0.006,0.0192 0.0222,0.0635 0.0235,0.0667 l -11.99422,6.4811 c 0.43614,1.97841 1.02483,3.97445 1.71517,5.93344 0.56482,1.60282 1.16636,3.16864 1.87292,4.6755 l 13.50182,-2.20291 c 2.45755,4.09226 5.62502,7.60667 9.300745,10.39939 l -3.902495,13.0231 c 3.109761,1.92335 6.468952,3.48843 9.920791,4.69511 l 8.104288,-11.12216 c 4.578225,1.06726 9.340071,1.26889 14.153125,0.49833 l 6.457524,11.92736 c 1.470742,-0.37253 2.933522,-0.88344 4.392166,-1.39746 2.059285,-0.72567 3.998811,-1.49687 5.898437,-2.4543 l -2.139861,-13.74946 c 3.917768,-2.58198 7.298608,-5.8575 9.923841,-9.58404 l 12.932722,3.85918 c 1.869271,-3.21207 3.390549,-6.68303 4.510497,-10.23146 l -11.302979,-8.19088 c 0.793598,-4.21619 0.837028,-8.57479 0.09283,-12.95814 l 11.927382,-6.45753 c -0.353859,-1.35746 -0.781477,-2.64418 -1.256117,-3.99107 -0.824813,-2.34063 -1.905597,-4.53973 -3.027911,-6.6732 l -13.659058,2.18315 c -2.31455,-3.35952 -5.185874,-6.24304 -8.373793,-8.6219 l 3.902483,-13.0231 c -3.350446,-2.03833 -6.953459,-3.74226 -10.687295,-4.95104 l -8.257751,11.32652 c -3.784292,-0.74856 -7.655148,-0.98206 -11.597649,-0.4971 l -6.481084,-11.99419 c -1.90096,0.42851 -3.783392,0.95749 -5.666073,1.62093 -0.508832,0.1793 -1.037797,0.3488 -1.537478,0.5418 -0.242988,0.0957 -0.495074,0.15753 -0.735325,0.25911 -0.06499,0.0277 -0.135655,0.043 -0.200428,0.0706 z"
           id="path3243-3-7-4-6-3-3-5"
           sodipodi:nodetypes="cccccccccccsccccccccsccccccccsccccccccscccc" />
        <g
           id="g75341-9-7-2-4-8"
           transform="matrix(0.64551356,0,0,0.64551356,-242.64657,-9.6558973)"
           style="fill:#ffffff;fill-opacity:1">
          <path
             inkscape:connector-curvature="0"
             style="color:#000000;display:inline;overflow:visible;visibility:visible;fill:#ffffff;fill-opacity:1;fill-rule:nonzero;stroke:none;stroke-width:1;marker:none"
             d="m 289.74387,337.92075 c -16.35471,-16.3547 -22.4258,-8.24102 -22.4258,-8.24102 l -7.32941,7.36587 15.6069,15.6069 -2.20612,2.20611 -21.8059,-21.8059 c 0,0 -9.27851,-11.65224 -25.78056,4.84981 -16.50204,16.50204 -6.78243,25.05126 -6.78243,25.05126 l 5.45147,5.45148 7.65759,-7.6576 c 0,0 8.84057,-9.42826 18.12297,-0.14585 9.2824,9.2824 15.47927,15.47927 15.47927,15.47927 0,0 8.55625,8.83742 17.10195,0.29172 8.5457,-8.5457 14.13008,-14.13008 14.13008,-14.13008 0,0 9.8714,-7.23056 -7.22001,-24.32197 z m -13.54665,-3.6647 c 1.55278,1.55277 1.55278,4.06279 0,5.61556 -1.55277,1.55278 -4.06279,1.55278 -5.61556,0 -1.55278,-1.55277 -1.55277,-4.06279 0,-5.61556 1.55277,-1.55278 4.06279,-1.55277 5.61556,0 z"
             id="path8615-2-6-0-4-0" />
          <path
             inkscape:connector-curvature="0"
             id="path8620-9-3-1-2-8"
             d="m 226.12023,402.47334 c 16.35471,16.35471 22.4258,8.24102 22.4258,8.24102 l 7.32944,-7.36584 -15.6069,-15.6069 2.20611,-2.20612 21.8059,21.80591 c 0,0 9.27851,11.65223 25.78056,-4.84982 16.50206,-16.50204 6.78244,-25.05126 6.78244,-25.05126 l -5.45147,-5.45147 -7.65759,7.65759 c 0,0 -8.84056,9.42826 -18.12297,0.14586 -9.2824,-9.28241 -15.47927,-15.47928 -15.47927,-15.47928 0,0 -8.55625,-8.83742 -17.10196,-0.29171 -8.5457,8.5457 -14.13008,14.13008 -14.13008,14.13008 0,0 -9.87139,7.23055 7.22002,24.32197 z m 13.54664,3.6647 c -1.55277,-1.55277 -1.55277,-4.06279 0,-5.61557 1.55277,-1.55277 4.06279,-1.55277 5.61557,0 1.55277,1.55278 1.55277,4.0628 0,5.61557 -1.55277,1.55278 -4.0628,1.55277 -5.61557,0 z"
             style="color:#000000;display:inline;overflow:visible;visibility:visible;fill:#ffffff;fill-opacity:1;fill-rule:nonzero;stroke:none;stroke-width:1;marker:none" />
        </g>
      </g>
      <g
         transform="translate(248.93895,-275.39795)"
         id="g4054-8-1-0">
        <path
           inkscape:transform-center-y="-2.3772328"
           inkscape:transform-center-x="0.059605873"
           transform="matrix(0.2178421,0,0,0.2178421,397.01928,332.44397)"
           d="m -268.66033,338.11887 -40.36946,-20.83752 -40.05152,21.44229 7.34281,-44.83279 -32.76943,-31.46522 44.90757,-6.87067 19.7989,-40.88886 20.41159,40.58648 45.00581,6.19451 -32.2925,31.95449 z"
           inkscape:randomized="0"
           inkscape:rounded="0"
           inkscape:flatsided="false"
           sodipodi:arg2="1.5632764"
           sodipodi:arg1="0.9349579"
           sodipodi:r2="34.206051"
           sodipodi:r1="68.412102"
           sodipodi:cy="283.07626"
           sodipodi:cx="-309.28702"
           sodipodi:sides="5"
           id="path3226-8-8-3-1"
           style="fill:#fffeff;fill-opacity:1;fill-rule:nonzero;stroke:none"
           sodipodi:type="star" />
        <path
           inkscape:transform-center-y="-2.3772328"
           inkscape:transform-center-x="0.059605873"
           transform="matrix(0.2178421,0,0,0.2178421,428.51941,332.16013)"
           d="m -268.66033,338.11887 -40.36946,-20.83752 -40.05152,21.44229 7.34281,-44.83279 -32.76943,-31.46522 44.90757,-6.87067 19.7989,-40.88886 20.41159,40.58648 45.00581,6.19451 -32.2925,31.95449 z"
           inkscape:randomized="0"
           inkscape:rounded="0"
           inkscape:flatsided="false"
           sodipodi:arg2="1.5632764"
           sodipodi:arg1="0.9349579"
           sodipodi:r2="34.206051"
           sodipodi:r1="68.412102"
           sodipodi:cy="283.07626"
           sodipodi:cx="-309.28702"
           sodipodi:sides="5"
           id="path3226-8-7-9-9-8"
           style="fill:#fffeff;fill-opacity:1;fill-rule:nonzero;stroke:none"
           sodipodi:type="star" />
        <path
           inkscape:transform-center-y="-2.3772328"
           inkscape:transform-center-x="0.059605873"
           transform="matrix(0.2178421,0,0,0.2178421,460.01953,332.16013)"
           d="m -268.66033,338.11887 -40.36946,-20.83752 -40.05152,21.44229 7.34281,-44.83279 -32.76943,-31.46522 44.90757,-6.87067 19.7989,-40.88886 20.41159,40.58648 45.00581,6.19451 -32.2925,31.95449 z"
           inkscape:randomized="0"
           inkscape:rounded="0"
           inkscape:flatsided="false"
           sodipodi:arg2="1.5632764"
           sodipodi:arg1="0.9349579"
           sodipodi:r2="34.206051"
           sodipodi:r1="68.412102"
           sodipodi:cy="283.07626"
           sodipodi:cx="-309.28702"
           sodipodi:sides="5"
           id="path3226-8-70-6-7-4"
           style="fill:#fffeff;fill-opacity:1;fill-rule:nonzero;stroke:none"
           sodipodi:type="star" />
      </g>
    </g>
  </g>
</svg>
