<?xml version="1.0" encoding="UTF-8" standalone="no"?>
<!-- Created with Inkscape (http://www.inkscape.org/) -->

<svg
   xmlns:dc="http://purl.org/dc/elements/1.1/"
   xmlns:cc="http://creativecommons.org/ns#"
   xmlns:rdf="http://www.w3.org/1999/02/22-rdf-syntax-ns#"
   xmlns:svg="http://www.w3.org/2000/svg"
   xmlns="http://www.w3.org/2000/svg"
   xmlns:sodipodi="http://sodipodi.sourceforge.net/DTD/sodipodi-0.dtd"
   xmlns:inkscape="http://www.inkscape.org/namespaces/inkscape"
   width="31.423931mm"
   height="36.513172mm"
   viewBox="0 0 111.34464 129.37738"
   id="svg5605"
   version="1.1"
   inkscape:version="0.91 r13725"
   sodipodi:docname="scikits-white-3.svg">
  <defs
     id="defs5607" />
  <sodipodi:namedview
     id="base"
     pagecolor="#ffffff"
     bordercolor="#666666"
     borderopacity="1.0"
     inkscape:pageopacity="0.0"
     inkscape:pageshadow="2"
     inkscape:zoom="6.1757317"
     inkscape:cx="55.672319"
     inkscape:cy="64.688691"
     inkscape:document-units="px"
     inkscape:current-layer="layer1"
     showgrid="false"
     fit-margin-top="0"
     fit-margin-left="0"
     fit-margin-right="0"
     fit-margin-bottom="0"
     inkscape:window-width="1680"
     inkscape:window-height="1001"
     inkscape:window-x="0"
     inkscape:window-y="23"
     inkscape:window-maximized="1" />
  <metadata
     id="metadata5610">
    <rdf:RDF>
      <cc:Work
         rdf:about="">
        <dc:format>image/svg+xml</dc:format>
        <dc:type
           rdf:resource="http://purl.org/dc/dcmitype/StillImage" />
        <dc:title></dc:title>
      </cc:Work>
    </rdf:RDF>
  </metadata>
  <g
     inkscape:label="Layer 1"
     inkscape:groupmode="layer"
     id="layer1"
     transform="translate(-15.756254,-193.3878)">
    <g
       id="g11720"
       transform="matrix(0.75000004,0,0,0.75000009,-15.585407,185.19156)">
      <path
         sodipodi:nodetypes="ccccccc"
         inkscape:connector-curvature="0"
         id="path4827-4-2-9-3"
         d="m 44.703315,138.62031 0,-82.880833 71.315325,-41.44041 71.31532,41.44041 0,82.880833 -71.31532,41.44042 z"
         style="fill:#20435c;fill-opacity:1;stroke:#ffffff;stroke-width:5.8288703;stroke-linecap:butt;stroke-linejoin:miter;stroke-miterlimit:4;stroke-dasharray:none;stroke-opacity:1" />
      <path
         sodipodi:nodetypes="ccccccc"
         inkscape:connector-curvature="0"
         id="path4827-4-2-9-3-1"
         d="m 53.891347,133.28125 0,-72.202725 62.127293,-36.101361 62.12729,36.101361 0,72.202725 -62.12729,36.10138 z"
         style="fill:#ffffff;fill-opacity:1;stroke:none" />
      <g
         transform="translate(60.035768,-2.190827)"
         id="g4489">
        <path
           inkscape:connector-curvature="0"
           style="color:#000000;display:inline;overflow:visible;visibility:visible;fill:none;stroke:#20435c;stroke-width:1.45721757;stroke-linecap:butt;stroke-linejoin:miter;stroke-miterlimit:4;stroke-dasharray:none;stroke-dashoffset:0;stroke-opacity:1;marker:none"
           d="m 45.00294,45.782821 c -0.56455,0.244907 -1.09519,0.534591 -1.64048,0.801544 l -0.0388,0.01374 1.25475,7.948315 c -2.03783,1.293664 -3.82054,2.894824 -5.28574,4.731073 l -7.64423,-2.254495 c -1.19741,1.872651 -2.17144,3.906845 -2.91989,6.001293 l 6.40955,4.71384 c -0.59317,2.432925 -0.76939,5.033223 -0.48339,7.598014 0.003,0.01123 0.0129,0.03713 0.0137,0.039 L 27.69965,79.1651 c 0.2534,1.156915 0.59543,2.32414 0.99653,3.469704 0.32816,0.93728 0.67767,1.85292 1.08818,2.73408 l 7.84469,-1.28819 c 1.42786,2.39303 3.26819,4.44815 5.40383,6.08125 l -2.26739,7.61552 c 1.8068,1.12472 3.75852,2.03994 5.76408,2.745566 l 4.70867,-6.503906 c 2.65999,0.6241 5.42667,0.74201 8.2231,0.29141 l 3.75188,6.974756 c 0.85452,-0.21784 1.70441,-0.51661 2.5519,-0.81719 1.19646,-0.42435 2.32334,-0.875326 3.42705,-1.435196 l -1.24328,-8.04028 c 2.27626,-1.50986 4.24056,-3.42529 5.76584,-5.60446 l 7.51404,2.25673 c 1.08607,-1.87832 1.96994,-3.90803 2.62065,-5.983047 l -6.56715,-4.789784 c 0.46109,-2.465502 0.48633,-5.014282 0.0539,-7.577535 l 6.92992,-3.776172 C 84.0605,64.724554 83.81205,63.972118 83.53628,63.184497 83.05705,61.815766 82.42911,60.529798 81.77703,59.282208 l -7.93604,1.276641 c -1.34478,-1.964548 -3.01305,-3.650744 -4.86526,-5.041831 l 2.26738,-7.615522 c -1.94664,-1.191955 -4.04003,-2.188363 -6.20942,-2.895221 l -4.79784,6.623412 c -2.19871,-0.437736 -4.44771,-0.574279 -6.73834,-0.290689 l -3.76558,-7.013846 c -1.10447,0.25058 -2.19818,0.559911 -3.29204,0.947871 -0.29564,0.10485 -0.60297,0.203968 -0.89329,0.316829 -0.14118,0.05596 -0.28764,0.09212 -0.42723,0.15152 -0.0378,0.0162 -0.0788,0.02515 -0.11645,0.04129 z"
           id="path3243-3-7-4-6-3-1"
           sodipodi:nodetypes="cccccccccccsccccccccsccccccccsccccccccscccc" />
        <g
           id="g75341-9-7-2-7"
           transform="matrix(0.37504969,0,0,0.37747716,-40.75444,-66.935618)"
           style="fill:#20435c;fill-opacity:1">
          <path
             inkscape:connector-curvature="0"
             style="color:#000000;display:inline;overflow:visible;visibility:visible;fill:#20435c;fill-opacity:1;fill-rule:nonzero;stroke:none;stroke-width:1;marker:none"
             d="m 289.74387,337.92075 c -16.35471,-16.3547 -22.4258,-8.24102 -22.4258,-8.24102 l -7.32941,7.36587 15.6069,15.6069 -2.20612,2.20611 -21.8059,-21.8059 c 0,0 -9.27851,-11.65224 -25.78056,4.84981 -16.50204,16.50204 -6.78243,25.05126 -6.78243,25.05126 l 5.45147,5.45148 7.65759,-7.6576 c 0,0 8.84057,-9.42826 18.12297,-0.14585 9.2824,9.2824 15.47927,15.47927 15.47927,15.47927 0,0 8.55625,8.83742 17.10195,0.29172 8.5457,-8.5457 14.13008,-14.13008 14.13008,-14.13008 0,0 9.8714,-7.23056 -7.22001,-24.32197 z m -13.54665,-3.6647 c 1.55278,1.55277 1.55278,4.06279 0,5.61556 -1.55277,1.55278 -4.06279,1.55278 -5.61556,0 -1.55278,-1.55277 -1.55277,-4.06279 0,-5.61556 1.55277,-1.55278 4.06279,-1.55277 5.61556,0 z"
             id="path8615-2-6-0-04" />
          <path
             inkscape:connector-curvature="0"
             id="path8620-9-3-1-0"
             d="m 226.12023,402.47334 c 16.35471,16.35471 22.4258,8.24102 22.4258,8.24102 l 7.32944,-7.36584 -15.6069,-15.6069 2.20611,-2.20612 21.8059,21.80591 c 0,0 9.27851,11.65223 25.78056,-4.84982 16.50206,-16.50204 6.78244,-25.05126 6.78244,-25.05126 l -5.45147,-5.45147 -7.65759,7.65759 c 0,0 -8.84056,9.42826 -18.12297,0.14586 -9.2824,-9.28241 -15.47927,-15.47928 -15.47927,-15.47928 0,0 -8.55625,-8.83742 -17.10196,-0.29171 -8.5457,8.5457 -14.13008,14.13008 -14.13008,14.13008 0,0 -9.87139,7.23055 7.22002,24.32197 z m 13.54664,3.6647 c -1.55277,-1.55277 -1.55277,-4.06279 0,-5.61557 1.55277,-1.55277 4.06279,-1.55277 5.61557,0 1.55277,1.55278 1.55277,4.0628 0,5.61557 -1.55277,1.55278 -4.0628,1.55277 -5.61557,0 z"
             style="color:#000000;display:inline;overflow:visible;visibility:visible;fill:#20435c;fill-opacity:1;fill-rule:nonzero;stroke:none;stroke-width:1;marker:none" />
        </g>
      </g>
      <g
         style="fill:#20435c;fill-opacity:1"
         transform="translate(-245.0904,-275.39795)"
         id="g4054-8-1-0-6">
        <path
           inkscape:transform-center-y="-2.3772328"
           inkscape:transform-center-x="0.059605873"
           transform="matrix(0.2178421,0,0,0.2178421,397.01928,332.44397)"
           d="m -268.66033,338.11887 -40.36946,-20.83752 -40.05152,21.44229 7.34281,-44.83279 -32.76943,-31.46522 44.90757,-6.87067 19.7989,-40.88886 20.41159,40.58648 45.00581,6.19451 -32.2925,31.95449 z"
           inkscape:randomized="0"
           inkscape:rounded="0"
           inkscape:flatsided="false"
           sodipodi:arg2="1.5632764"
           sodipodi:arg1="0.9349579"
           sodipodi:r2="34.206051"
           sodipodi:r1="68.412102"
           sodipodi:cy="283.07626"
           sodipodi:cx="-309.28702"
           sodipodi:sides="5"
           id="path3226-8-8-3-1-9"
           style="fill:#20435c;fill-opacity:1;fill-rule:nonzero;stroke:none"
           sodipodi:type="star" />
        <path
           inkscape:transform-center-y="-2.3772328"
           inkscape:transform-center-x="0.059605873"
           transform="matrix(0.2178421,0,0,0.2178421,428.51941,332.16013)"
           d="m -268.66033,338.11887 -40.36946,-20.83752 -40.05152,21.44229 7.34281,-44.83279 -32.76943,-31.46522 44.90757,-6.87067 19.7989,-40.88886 20.41159,40.58648 45.00581,6.19451 -32.2925,31.95449 z"
           inkscape:randomized="0"
           inkscape:rounded="0"
           inkscape:flatsided="false"
           sodipodi:arg2="1.5632764"
           sodipodi:arg1="0.9349579"
           sodipodi:r2="34.206051"
           sodipodi:r1="68.412102"
           sodipodi:cy="283.07626"
           sodipodi:cx="-309.28702"
           sodipodi:sides="5"
           id="path3226-8-7-9-9-8-7"
           style="fill:#20435c;fill-opacity:1;fill-rule:nonzero;stroke:none"
           sodipodi:type="star" />
        <path
           inkscape:transform-center-y="-2.3772328"
           inkscape:transform-center-x="0.059605873"
           transform="matrix(0.2178421,0,0,0.2178421,460.01953,332.16013)"
           d="m -268.66033,338.11887 -40.36946,-20.83752 -40.05152,21.44229 7.34281,-44.83279 -32.76943,-31.46522 44.90757,-6.87067 19.7989,-40.88886 20.41159,40.58648 45.00581,6.19451 -32.2925,31.95449 z"
           inkscape:randomized="0"
           inkscape:rounded="0"
           inkscape:flatsided="false"
           sodipodi:arg2="1.5632764"
           sodipodi:arg1="0.9349579"
           sodipodi:r2="34.206051"
           sodipodi:r1="68.412102"
           sodipodi:cy="283.07626"
           sodipodi:cx="-309.28702"
           sodipodi:sides="5"
           id="path3226-8-70-6-7-4-6"
           style="fill:#20435c;fill-opacity:1;fill-rule:nonzero;stroke:none"
           sodipodi:type="star" />
      </g>
    </g>
  </g>
</svg>
